<svg width="36" height="30" viewBox="0 0 36 30" fill="none" xmlns="http://www.w3.org/2000/svg">
<path d="M14.9467 28.1162C13.8824 25.6343 13.3376 22.9105 13.3376 19.983C13.3376 16.9028 13.9204 13.9627 15.0733 11.2389C16.2136 8.54052 17.8226 6.13492 19.8497 4.11116C21.5221 2.44378 23.4605 1.08188 25.6143 0C24.436 0.0509122 23.2704 0.101824 22.1175 0.152737C19.8244 0.267289 17.5312 0.369113 15.2381 0.483666C12.9449 0.598218 10.6264 0.71277 8.26989 0.852779C6.78758 0.941875 5.27992 1.03097 3.73426 1.12007C1.71982 3.7675 0.40221 6.9877 0.0981445 10.5134H4.81115C5.46996 10.5134 6.10343 10.5134 6.69889 10.5388C6.64821 11.5062 6.59754 12.3844 6.54686 13.1735C6.49618 13.9627 6.45817 14.7518 6.40749 15.5282C6.35682 16.3046 6.30614 17.0938 6.23012 17.9084C6.15411 18.723 6.06542 19.6139 5.96407 20.6067L5.62199 25.1633C8.35858 27.7853 11.9187 29.5418 15.8715 30C15.5294 29.3891 15.2254 28.7654 14.934 28.1162H14.9467Z" fill="#2E388E" fill-opacity="0.15"/>
<path d="M33.8113 3.53845C32.2023 3.71664 30.6693 4.09849 29.2376 4.70943C29.0349 4.79853 28.8449 4.90035 28.6422 4.98945C26.8558 5.81677 25.2721 6.89866 23.9292 8.24783C23.2197 8.9606 22.5735 9.73701 22.0161 10.5771C21.3953 11.4935 20.8632 12.4608 20.4197 13.5172C19.5709 15.5283 19.1401 17.692 19.1401 19.9958C19.1401 22.1214 19.5202 24.0688 20.2677 25.8125C20.8632 27.2126 21.6487 28.4345 22.5989 29.5164C25.8676 28.6382 28.7689 26.869 31.024 24.4761C30.5172 23.9797 30.0991 23.3687 29.7824 22.6432C29.4023 21.7905 29.2123 20.7595 29.2123 19.5376C29.2123 18.3157 29.3897 17.2975 29.7444 16.292C30.0991 15.2864 30.6186 14.4209 31.2774 13.6954C31.9489 12.9699 32.7344 12.3972 33.6719 11.9771C34.3561 11.6717 35.0909 11.4808 35.9017 11.4044C35.8004 8.56603 35.0529 5.89314 33.7986 3.53845H33.8113Z" fill="#2E388E" fill-opacity="0.15"/>
</svg>
