<svg width="36" height="31" viewBox="0 0 36 31" fill="none" xmlns="http://www.w3.org/2000/svg">
<path d="M14.9467 28.9976C13.8824 26.5156 13.3376 23.7918 13.3376 20.8644C13.3376 17.7842 13.9204 14.844 15.0733 12.1202C16.2136 9.42187 17.8226 7.01626 19.8497 4.99251C21.5221 3.32513 23.4605 1.96323 25.6143 0.881348C24.436 0.93226 23.2704 0.983172 22.1175 1.03408C19.8244 1.14864 17.5312 1.25046 15.2381 1.36501C12.9449 1.47957 10.6264 1.59412 8.26989 1.73413C6.78758 1.82322 5.27992 1.91232 3.73426 2.00142C1.71982 4.64885 0.40221 7.86904 0.0981445 11.3947H4.81115C5.46996 11.3947 6.10343 11.3947 6.69889 11.4202C6.64821 12.3875 6.59754 13.2657 6.54686 14.0549C6.49618 14.844 6.45817 15.6332 6.40749 16.4096C6.35682 17.186 6.30614 17.9751 6.23012 18.7897C6.15411 19.6043 6.06542 20.4953 5.96407 21.4881L5.62199 26.0447C8.35858 28.6667 11.9187 30.4231 15.8715 30.8813C15.5294 30.2704 15.2254 29.6467 14.934 28.9976H14.9467Z" fill="white" fill-opacity="0.15"/>
<path d="M33.8113 4.41968C32.2023 4.59787 30.6693 4.97971 29.2376 5.59066C29.0349 5.67975 28.8449 5.78158 28.6422 5.87067C26.8558 6.698 25.2721 7.77988 23.9292 9.12905C23.2197 9.84182 22.5735 10.6182 22.0161 11.4583C21.3953 12.3747 20.8632 13.342 20.4197 14.3985C19.5709 16.4095 19.1401 18.5733 19.1401 20.877C19.1401 23.0026 19.5202 24.95 20.2677 26.6938C20.8632 28.0938 21.6487 29.3157 22.5989 30.3976C25.8676 29.5194 28.7689 27.7502 31.024 25.3573C30.5172 24.8609 30.0991 24.25 29.7824 23.5245C29.4023 22.6717 29.2123 21.6407 29.2123 20.4188C29.2123 19.1969 29.3897 18.1787 29.7444 17.1732C30.0991 16.1677 30.6186 15.3022 31.2774 14.5767C31.9489 13.8512 32.7344 13.2784 33.6719 12.8584C34.3561 12.5529 35.0909 12.362 35.9017 12.2856C35.8004 9.44726 35.0529 6.77437 33.7986 4.41968H33.8113Z" fill="white" fill-opacity="0.15"/>
</svg>
