<svg width="184" height="51" viewBox="0 0 184 51" fill="none" xmlns="http://www.w3.org/2000/svg">
<g clip-path="url(#clip0_129_151)">
<path d="M25.6306 47.25C23.8473 43.1203 22.9429 38.564 22.9429 33.7005C22.9429 28.564 23.9241 23.6578 25.8439 19.1186C27.7551 14.6134 30.4429 10.6203 33.8302 7.24143C36.6203 4.46839 39.8712 2.19023 43.4804 0.389893C41.5009 0.475217 39.5555 0.560541 37.6357 0.654398C33.7961 0.833579 29.948 1.02129 26.1084 1.20047C22.2688 1.37965 18.378 1.58443 14.4446 1.81481C11.9702 1.95986 9.4275 2.10491 6.85924 2.25849C3.47187 6.66122 1.2705 12.0367 0.76709 17.907H8.66811C9.77733 17.907 10.8354 17.924 11.8336 17.9496C11.7398 19.5622 11.6545 21.0213 11.5862 22.3438C11.5094 23.6663 11.4326 24.9718 11.3558 26.2602C11.279 27.5486 11.1852 28.8711 11.0572 30.2192C10.9377 31.5759 10.7842 33.0691 10.605 34.7073L10.0248 42.3097C14.6152 46.6698 20.5708 49.5964 27.192 50.3728C26.6289 49.3575 26.0999 48.3165 25.6306 47.2329V47.25Z" fill="white"/>
<path d="M57.2177 6.28588C54.5214 6.58451 51.9617 7.22444 49.5641 8.23127C49.2228 8.37632 48.9071 8.54697 48.5743 8.70055C45.5795 10.0913 42.9344 11.8831 40.6818 14.1186C39.4873 15.3132 38.4208 16.6101 37.4651 17.9924C36.4242 19.5111 35.5283 21.1408 34.7859 22.89C33.361 26.2517 32.6528 29.8439 32.6528 33.6835C32.6528 37.233 33.2842 40.4668 34.547 43.3849C35.5539 45.7142 36.8679 47.762 38.4634 49.5623C43.9412 48.1033 48.7962 45.1596 52.576 41.1579C51.7313 40.3302 51.0317 39.3234 50.4941 38.1118C49.8627 36.6869 49.547 34.9634 49.547 32.9412C49.547 30.919 49.8457 29.204 50.4515 27.5316C51.0487 25.8593 51.9105 24.4173 53.0283 23.1971C54.146 21.977 55.4771 21.0299 57.03 20.3388C58.1733 19.8354 59.4105 19.5197 60.7586 19.3831C60.5795 14.6562 59.3423 10.2023 57.2347 6.27734L57.2177 6.28588Z" fill="white"/>
<path d="M102.977 22.2755C103.19 22.2755 103.293 22.1731 103.293 21.9598V20.9359C103.293 20.7226 103.19 20.6202 102.977 20.6202H101.68V15.7994C101.68 15.2704 101.911 14.7925 102.371 14.3745C102.832 13.9564 103.412 13.7431 104.112 13.7431C104.812 13.7431 105.272 13.9478 105.494 14.3489C105.716 14.7499 105.827 15.3983 105.827 16.2772V20.6117H104.82C104.607 20.6117 104.504 20.714 104.504 20.9274V21.9512C104.504 22.1646 104.607 22.2669 104.82 22.2669H109.385C109.598 22.2669 109.701 22.1646 109.701 21.9512V20.9274C109.701 20.714 109.598 20.6117 109.385 20.6117H108.173V15.2277C108.173 12.8557 107.09 11.6697 104.923 11.6697C103.472 11.6697 102.354 12.2584 101.569 13.4274L101.382 12.2158C101.339 12.0024 101.228 11.9001 101.049 11.9001H98.199C97.9857 11.9001 97.8833 12.0024 97.8833 12.2158V13.325C97.8833 13.5212 97.9857 13.6151 98.199 13.6151H99.3338V20.6117H98.2246C98.0113 20.6117 97.9089 20.714 97.9089 20.9274V21.9512C97.9089 22.1646 98.0113 22.2669 98.2246 22.2669H102.977V22.2755Z" fill="white"/>
<path d="M92.6697 22.5229C94.052 22.5229 95.2038 22.2755 96.1253 21.7721C96.3216 21.6611 96.3813 21.5246 96.3131 21.354L95.912 20.3898C95.8267 20.1765 95.6902 20.1253 95.4939 20.2192C94.6834 20.5861 93.8984 20.7652 93.1305 20.7652C92.081 20.7652 91.3387 20.4922 90.912 19.9461C90.4939 19.3915 90.2465 18.6065 90.1782 17.5997H96.3387C96.4922 17.5997 96.5946 17.5741 96.6543 17.5144C96.7141 17.4547 96.7397 17.139 96.7397 16.5502C96.7397 15.3045 96.4581 14.2123 95.9035 13.2652C95.6134 12.7789 95.1868 12.3949 94.6236 12.1134C94.0776 11.8233 93.4206 11.6697 92.6526 11.6697C91.0997 11.6697 89.9137 12.1902 89.0946 13.2396C88.267 14.2891 87.8574 15.6117 87.8574 17.2158C87.8574 18.8198 88.2414 20.0912 89.0093 21.0724C89.7943 22.0366 91.0144 22.5144 92.6782 22.5144L92.6697 22.5229ZM90.7158 14.2294C91.0656 13.7004 91.6544 13.4359 92.4735 13.4359C93.8728 13.4359 94.5554 14.3062 94.5298 16.0553H90.1697C90.1953 15.3557 90.383 14.7499 90.7158 14.2294Z" fill="white"/>
<path d="M133.31 13.6236H134.445V20.6202H133.335C133.122 20.6202 133.02 20.7226 133.02 20.9359V21.9598C133.02 22.1731 133.122 22.2755 133.335 22.2755H139.095C139.308 22.2755 139.411 22.1731 139.411 21.9598V20.9359C139.411 20.7226 139.308 20.6202 139.095 20.6202H136.791V16.7038C136.791 15.825 137.004 15.1253 137.422 14.6048C137.841 14.0758 138.37 13.8113 139.018 13.8113C139.189 13.8113 139.308 13.8113 139.376 13.8284L139.291 15.04C139.274 15.2533 139.376 15.3557 139.581 15.3557H140.946C141.16 15.3557 141.262 15.2533 141.262 15.04V12.2158C141.262 12.0195 141.177 11.8915 141.015 11.8403C140.682 11.7294 140.196 11.6697 139.573 11.6697C138.95 11.6697 138.361 11.8745 137.832 12.2755C137.303 12.668 136.919 13.1373 136.68 13.7004L136.45 12.2158C136.407 12.0024 136.288 11.9001 136.091 11.9001H133.327C133.114 11.9001 133.011 12.0024 133.011 12.2158V13.3079C133.011 13.5212 133.114 13.6236 133.327 13.6236H133.31Z" fill="white"/>
<path d="M86.39 8.052H75.4344C75.221 8.052 75.1187 8.15439 75.1187 8.3677V11.3626C75.1187 11.5759 75.221 11.6783 75.4344 11.6783H76.7142C76.9275 11.6783 77.0214 11.5759 77.0043 11.3626L76.9019 9.72436H79.7262V20.6203H78.0111C77.7978 20.6203 77.6954 20.7227 77.6954 20.936V21.9599C77.6954 22.1732 77.7978 22.2756 78.0111 22.2756H83.8388C84.0521 22.2756 84.1545 22.1732 84.1545 21.9599V20.936C84.1545 20.7227 84.0521 20.6203 83.8388 20.6203H82.0982V9.72436H84.9224L84.82 11.3626C84.803 11.5759 84.9053 11.6783 85.1101 11.6783H86.39C86.6033 11.6783 86.7057 11.5759 86.7057 11.3626V8.3677C86.7057 8.15439 86.6033 8.052 86.39 8.052Z" fill="white"/>
<path d="M131.416 21.354L131.015 20.3898C130.929 20.1765 130.793 20.1253 130.596 20.2192C129.786 20.5861 129.001 20.7652 128.233 20.7652C127.184 20.7652 126.441 20.4922 126.015 19.9461C125.596 19.3915 125.349 18.6065 125.281 17.5997H131.441C131.595 17.5997 131.697 17.5741 131.757 17.5144C131.817 17.4547 131.842 17.139 131.842 16.5502C131.842 15.3045 131.561 14.2123 131.006 13.2652C130.716 12.7789 130.289 12.3949 129.726 12.1134C129.18 11.8233 128.523 11.6697 127.755 11.6697C126.202 11.6697 125.016 12.1902 124.197 13.2396C123.37 14.2891 122.96 15.6117 122.96 17.2158C122.96 18.8198 123.344 20.0912 124.112 21.0724C124.897 22.0366 126.117 22.5144 127.781 22.5144C129.163 22.5144 130.315 22.2669 131.236 21.7635C131.433 21.6526 131.492 21.5161 131.424 21.3454L131.416 21.354ZM125.827 14.2294C126.177 13.7004 126.765 13.4359 127.585 13.4359C128.984 13.4359 129.666 14.3062 129.641 16.0553H125.281C125.306 15.3557 125.494 14.7499 125.827 14.2294Z" fill="white"/>
<path d="M118.916 22.2754H121.279C121.492 22.2754 121.595 22.1731 121.595 21.9597V20.9359C121.595 20.7225 121.492 20.6202 121.279 20.6202H120.375V6.95974C120.375 6.74643 120.272 6.64404 120.059 6.64404H116.919C116.706 6.64404 116.603 6.74643 116.603 6.95974V8.06896C116.603 8.28227 116.706 8.38466 116.919 8.38466H118.028V12.8471C117.806 12.5229 117.456 12.2498 116.979 12.028C116.501 11.7891 115.963 11.6696 115.34 11.6696C113.984 11.6696 112.875 12.1475 112.013 13.0946C111.16 14.0417 110.733 15.4239 110.733 17.2413C110.733 19.0587 111.1 20.3727 111.842 21.243C112.584 22.0963 113.634 22.5229 115.008 22.5229C116.569 22.5229 117.712 21.9256 118.421 20.7225L118.591 21.9597C118.617 22.1731 118.728 22.2754 118.907 22.2754H118.916ZM118.037 18.3335C118.037 19.0417 117.789 19.6219 117.286 20.0485C116.799 20.4836 116.262 20.6969 115.673 20.6969C115.084 20.6969 114.624 20.6031 114.291 20.4068C113.506 19.9632 113.122 18.8369 113.122 17.0365C113.122 14.6901 113.984 13.5212 115.716 13.5212C116.177 13.5212 116.629 13.6406 117.081 13.8795C117.542 14.1184 117.866 14.3744 118.045 14.656V18.342L118.037 18.3335Z" fill="white"/>
<path d="M86.0316 39.6986H84.8371C84.6237 39.6986 84.5299 39.801 84.547 40.0143L84.6323 41.4819C84.0777 41.9256 83.233 42.156 82.1152 42.156C80.9975 42.156 80.1016 41.8829 79.436 41.3369C78.7705 40.7908 78.3012 40.1082 78.0367 39.2805C77.7722 38.4444 77.6357 37.4631 77.6357 36.3454C77.6357 32.7703 78.9753 30.9785 81.6545 30.9785C82.7551 30.9785 83.7449 31.2686 84.6067 31.8573L84.547 33.3249C84.5299 33.5382 84.6323 33.6406 84.8371 33.6406H86.006C86.2193 33.6406 86.3217 33.5382 86.3217 33.3249V30.6201C86.3217 30.441 86.2278 30.2959 86.0487 30.2021C84.7517 29.4939 83.2842 29.1355 81.6459 29.1355C80.0077 29.1355 78.5743 29.6816 77.2859 30.7737C76.6289 31.3283 76.0999 32.1218 75.6903 33.1372C75.2978 34.1526 75.1016 35.3386 75.1016 36.6782C75.1016 38.9393 75.6562 40.7225 76.7739 42.0195C77.9087 43.3164 79.6152 43.9649 81.9104 43.9649C83.4889 43.9649 84.8882 43.6662 86.1169 43.0604C86.2534 42.9922 86.3302 42.8556 86.3302 42.6594V39.9973C86.3302 39.784 86.2278 39.6816 86.0145 39.6816L86.0316 39.6986Z" fill="white"/>
<path d="M110.562 42.0706H109.351V36.6867C109.351 34.3147 108.267 33.1287 106.1 33.1287C104.649 33.1287 103.532 33.7174 102.747 34.8863L102.559 33.6747C102.516 33.4614 102.405 33.359 102.226 33.359H99.3762C99.1629 33.359 99.0605 33.4614 99.0605 33.6747V34.784C99.0605 34.9802 99.1629 35.0741 99.3762 35.0741H100.511V42.0706H99.4018C99.1885 42.0706 99.0861 42.173 99.0861 42.3863V43.4102C99.0861 43.6235 99.1885 43.7259 99.4018 43.7259H104.154C104.368 43.7259 104.47 43.6235 104.47 43.4102V42.3863C104.47 42.173 104.368 42.0706 104.154 42.0706H102.857V37.2498C102.857 36.7208 103.088 36.243 103.549 35.8249C104.009 35.4068 104.59 35.1935 105.289 35.1935C105.989 35.1935 106.45 35.3983 106.671 35.7993C106.893 36.2003 107.004 36.8488 107.004 37.7276V42.0621H105.997C105.784 42.0621 105.682 42.1645 105.682 42.3778V43.4017C105.682 43.615 105.784 43.7174 105.997 43.7174H110.562C110.776 43.7174 110.878 43.615 110.878 43.4017V42.3778C110.878 42.1645 110.776 42.0621 110.562 42.0621V42.0706Z" fill="white"/>
<path d="M118.224 42.0878C118.156 41.9172 118.045 41.866 117.892 41.9172C117.456 42.1134 117.013 42.2073 116.552 42.2073C116.091 42.2073 115.775 42.0622 115.613 41.7636C115.443 41.4735 115.366 40.9957 115.366 40.3387V35.0571H117.482C117.695 35.0571 117.798 34.9547 117.798 34.7414V33.6492C117.798 33.4359 117.695 33.3335 117.482 33.3335H115.366V30.5093C115.366 30.296 115.264 30.1936 115.05 30.1936H113.335C113.122 30.1936 113.02 30.296 113.02 30.5093V33.3335H111.825C111.612 33.3335 111.509 33.4359 111.509 33.6492V34.7414C111.509 34.9547 111.612 35.0571 111.825 35.0571H113.02V40.1083C113.02 40.697 113.045 41.2516 113.105 41.7806C113.148 42.1731 113.31 42.5742 113.583 42.9922C113.975 43.6322 114.794 43.9564 116.031 43.9564C116.953 43.9564 117.746 43.7858 118.421 43.453C118.557 43.3677 118.634 43.2909 118.634 43.2226C118.634 43.1373 118.634 43.0776 118.617 43.0349L118.241 42.0707L118.224 42.0878Z" fill="white"/>
<path d="M96.6116 34.4426C96.2874 34.0928 95.8352 33.7856 95.2464 33.5211C94.6577 33.2566 93.9409 33.1201 93.0877 33.1201C91.9273 33.1201 90.8522 33.487 89.8625 34.2293C89.342 34.6218 88.9239 35.202 88.6082 35.9699C88.2925 36.7379 88.1304 37.6423 88.1304 38.6918C88.1304 40.4409 88.5314 41.7549 89.342 42.6508C90.1696 43.5297 91.313 43.9734 92.7805 43.9734C94.2481 43.9734 95.4512 43.4955 96.3812 42.5314C97.3283 41.5502 97.8061 40.1252 97.8061 38.2566C97.8061 37.3778 97.6867 36.6099 97.4478 35.9529C97.2259 35.2959 96.9444 34.7925 96.6116 34.4426ZM94.7686 41.3368C94.3932 41.9512 93.7874 42.2583 92.9427 42.2583C91.3044 42.2583 90.4939 40.9188 90.4939 38.2396C90.4939 35.9785 91.2959 34.8437 92.9 34.8437C93.7618 34.8437 94.3846 35.1594 94.7686 35.7822C95.1611 36.3966 95.3573 37.3181 95.3573 38.5467C95.3573 39.7754 95.1611 40.7054 94.7686 41.3368Z" fill="white"/>
<path d="M162.943 42.0707H161.578L157.405 36.0809L161.552 31.2431H162.619C162.832 31.2431 162.934 31.1407 162.934 30.9274V29.8181C162.934 29.6048 162.832 29.5024 162.619 29.5024H158.344C158.131 29.5024 158.028 29.6048 158.028 29.8181V30.8847C158.028 31.098 158.131 31.2004 158.344 31.2004H159.453L155.554 35.6799H154.462V31.2004H155.571C155.784 31.2004 155.887 31.098 155.887 30.8847V29.8181C155.887 29.6048 155.784 29.5024 155.571 29.5024H151.006C150.793 29.5024 150.69 29.6048 150.69 29.8181V30.8847C150.69 31.098 150.793 31.2004 151.006 31.2004H152.115V42.0707H151.006C150.793 42.0707 150.69 42.1731 150.69 42.3864V43.4103C150.69 43.6236 150.793 43.726 151.006 43.726H155.571C155.784 43.726 155.887 43.6236 155.887 43.4103V42.3864C155.887 42.1731 155.784 42.0707 155.571 42.0707H154.462V37.3949H155.528L159.735 43.47C159.863 43.6407 160.025 43.7175 160.238 43.7175H162.917C163.131 43.7175 163.233 43.6151 163.233 43.4018V42.3779C163.233 42.1646 163.131 42.0622 162.917 42.0622L162.943 42.0707Z" fill="white"/>
<path d="M178.327 42.0878C178.259 41.9172 178.148 41.866 177.994 41.9172C177.559 42.1134 177.115 42.2073 176.654 42.2073C176.194 42.2073 175.878 42.0622 175.716 41.7636C175.545 41.4735 175.468 40.9957 175.468 40.3387V35.0571H177.585C177.798 35.0571 177.9 34.9547 177.9 34.7414V33.6492C177.9 33.4359 177.798 33.3335 177.585 33.3335H175.468V30.5093C175.468 30.296 175.366 30.1936 175.153 30.1936H173.438C173.224 30.1936 173.122 30.296 173.122 30.5093V33.3335H171.928C171.714 33.3335 171.612 33.4359 171.612 33.6492V34.7414C171.612 34.9547 171.714 35.0571 171.928 35.0571H173.122V40.1083C173.122 40.697 173.148 41.2516 173.207 41.7806C173.25 42.1731 173.412 42.5742 173.685 42.9922C174.078 43.6322 174.897 43.9564 176.134 43.9564C177.056 43.9564 177.849 43.7858 178.523 43.453C178.66 43.3677 178.736 43.2909 178.736 43.2226C178.736 43.1373 178.736 43.0776 178.719 43.0349L178.344 42.0707L178.327 42.0878Z" fill="white"/>
<path d="M171.655 28.5553C171.655 28.47 171.595 28.4017 171.467 28.342C170.682 27.9922 169.914 27.8215 169.163 27.8215C168.412 27.8215 167.815 27.9154 167.38 28.1116C166.33 28.5724 165.81 29.6389 165.81 31.3198V33.3505H164.513C164.3 33.3505 164.197 33.4529 164.197 33.6662V34.7328C164.197 34.9461 164.3 35.0485 164.513 35.0485H165.81V42.0621H164.513C164.3 42.0621 164.197 42.1645 164.197 42.3778V43.4017C164.197 43.615 164.3 43.7174 164.513 43.7174H170.375C170.588 43.7174 170.69 43.615 170.69 43.4017V42.3778C170.69 42.1645 170.588 42.0621 170.375 42.0621H168.156V35.0485H170.69C170.904 35.0485 171.006 34.9461 171.006 34.7328V33.6662C171.006 33.4529 170.904 33.3505 170.69 33.3505H168.156V31.8232C168.156 30.97 168.233 30.3813 168.387 30.0656C168.54 29.7328 168.865 29.5621 169.368 29.5621C169.871 29.5621 170.4 29.6901 170.963 29.9376C171.134 30.0058 171.254 29.9546 171.322 29.7925L171.638 28.743C171.638 28.743 171.655 28.6406 171.655 28.5553Z" fill="white"/>
<path d="M182.789 41.6271C182.499 41.3626 182.115 41.2261 181.655 41.2261C181.194 41.2261 180.818 41.3626 180.52 41.6442C180.23 41.9257 180.076 42.2756 180.076 42.6937C180.076 43.1117 180.213 43.4445 180.494 43.7175C180.776 43.982 181.16 44.1186 181.646 44.1186C182.132 44.1186 182.516 43.982 182.798 43.7005C183.08 43.4189 183.216 43.0691 183.216 42.651C183.216 42.2329 183.071 41.8916 182.772 41.6271H182.789Z" fill="white"/>
<path d="M145.153 42.0706H143.83V28.4102C143.83 28.1969 143.728 28.0945 143.515 28.0945H140.349C140.136 28.0945 140.033 28.1969 140.033 28.4102V29.5023C140.033 29.7156 140.136 29.818 140.349 29.818H141.484V42.0706H140.161C139.948 42.0706 139.846 42.173 139.846 42.3863V43.4102C139.846 43.6235 139.948 43.7259 140.161 43.7259H145.144C145.358 43.7259 145.46 43.6235 145.46 43.4102V42.3863C145.46 42.173 145.358 42.0706 145.144 42.0706H145.153Z" fill="white"/>
<path d="M127.439 33.2908C127.107 33.1798 126.62 33.1201 125.997 33.1201C125.375 33.1201 124.786 33.3249 124.257 33.7259C123.728 34.1184 123.344 34.5877 123.105 35.1508L122.875 33.6662C122.832 33.4529 122.712 33.3505 122.516 33.3505H119.752C119.538 33.3505 119.436 33.4529 119.436 33.6662V34.7583C119.436 34.9717 119.538 35.074 119.752 35.074H120.887V42.0706H119.777C119.564 42.0706 119.462 42.173 119.462 42.3863V43.4102C119.462 43.6235 119.564 43.7259 119.777 43.7259H125.537C125.75 43.7259 125.852 43.6235 125.852 43.4102V42.3863C125.852 42.173 125.75 42.0706 125.537 42.0706H123.233V38.1542C123.233 37.2754 123.446 36.5758 123.864 36.0553C124.282 35.5263 124.811 35.2618 125.46 35.2618C125.631 35.2618 125.75 35.2618 125.818 35.2788L125.733 36.4904C125.716 36.7037 125.818 36.8061 126.023 36.8061H127.388C127.602 36.8061 127.704 36.7037 127.704 36.4904V33.6662C127.704 33.4699 127.619 33.342 127.457 33.2908H127.439Z" fill="white"/>
<path d="M137.585 34.4426C137.261 34.0928 136.808 33.7856 136.22 33.5211C135.631 33.2566 134.914 33.1201 134.061 33.1201C132.9 33.1201 131.825 33.487 130.836 34.2293C130.315 34.6218 129.897 35.202 129.581 35.9699C129.266 36.7379 129.104 37.6423 129.104 38.6918C129.104 40.4409 129.505 41.7549 130.315 42.6508C131.143 43.5297 132.286 43.9734 133.754 43.9734C135.221 43.9734 136.424 43.4955 137.354 42.5314C138.301 41.5502 138.779 40.1252 138.779 38.2566C138.779 37.3778 138.66 36.6099 138.421 35.9529C138.199 35.2959 137.918 34.7925 137.585 34.4426ZM135.742 41.3368C135.366 41.9512 134.761 42.2583 133.916 42.2583C132.278 42.2583 131.467 40.9188 131.467 38.2396C131.467 35.9785 132.269 34.8437 133.873 34.8437C134.735 34.8437 135.358 35.1594 135.742 35.7822C136.134 36.3966 136.33 37.3181 136.33 38.5467C136.33 39.7754 136.134 40.7054 135.742 41.3368Z" fill="white"/>
</g>
<defs>
<clipPath id="clip0_129_151">
<rect width="182.466" height="50" fill="white" transform="translate(0.76709 0.381348)"/>
</clipPath>
</defs>
</svg>
