<svg width="64" height="55" viewBox="0 0 64 55" fill="none" xmlns="http://www.w3.org/2000/svg">
<g clip-path="url(#clip0_129_336)">
<path d="M17.6649 10.215C17.0952 9.63731 16.1008 9.63731 15.5324 10.215L12.282 13.512L11.1804 12.3938C10.886 12.0953 10.4994 11.9467 10.1141 11.9467C9.72887 11.9467 9.34089 12.0967 9.04651 12.3938C8.45911 12.9907 8.45911 13.9604 9.04651 14.5574L11.2157 16.7568C11.7868 17.3345 12.7798 17.3345 13.3496 16.7568L17.6676 12.3786C18.2564 11.7831 18.2564 10.812 17.6676 10.2164L17.6649 10.215Z" fill="#14A0DE"/>
<path d="M17.6647 19.5642C17.0759 18.9672 16.1196 18.9686 15.5308 19.5642L12.2804 22.8598L11.1775 21.7429C10.8926 21.4541 10.5141 21.2945 10.1099 21.2945C9.70559 21.2945 9.32846 21.4541 9.04358 21.7429C8.45618 22.3399 8.45618 23.3096 9.04358 23.9052L11.2128 26.1032C11.7825 26.6809 12.7756 26.6809 13.3453 26.1032L17.6633 21.7264C18.2521 21.1295 18.2521 20.1598 17.6633 19.5628L17.6647 19.5642Z" fill="#14A0DE"/>
<path d="M17.6649 28.9119C17.0952 28.3342 16.1008 28.3342 15.5324 28.9119L12.282 32.209L11.1804 31.0907C10.886 30.7922 10.4994 30.6437 10.1141 30.6437C9.72887 30.6437 9.34089 30.7936 9.04651 31.0907C8.45911 31.6877 8.45911 32.6574 9.04651 33.2543L11.2157 35.4537C11.7868 36.0314 12.7798 36.0314 13.3496 35.4537L17.6676 31.0756C18.2564 30.4786 18.2564 29.5089 17.6676 28.9119H17.6649Z" fill="#14A0DE"/>
<path d="M18.107 39.3422C18.107 38.9337 17.9496 38.5499 17.6647 38.2611C17.0949 37.6834 16.1019 37.6834 15.5308 38.2611L12.2804 41.5567L11.1775 40.4398C10.8831 40.1413 10.4965 39.9928 10.1099 39.9928C9.72323 39.9928 9.33796 40.1427 9.04358 40.4398C8.45618 41.0368 8.45618 42.0065 9.04358 42.6021L11.2128 44.8001C11.7825 45.3778 12.7756 45.3778 13.3453 44.8001L17.6633 40.4233C17.9482 40.1345 18.1056 39.7507 18.1056 39.3422H18.107Z" fill="#14A0DE"/>
<path d="M35.6738 11.955H23.2488C22.4172 11.955 21.7402 12.6414 21.7402 13.4846C21.7402 14.3277 22.4172 15.0141 23.2488 15.0141H35.6738C36.5054 15.0141 37.1823 14.3277 37.1823 13.4846C37.1823 12.6414 36.5054 11.955 35.6738 11.955Z" fill="#2E388E"/>
<path d="M35.6738 21.3041H23.2488C22.4172 21.3041 21.7402 21.9905 21.7402 22.8337C21.7402 23.6768 22.4172 24.3632 23.2488 24.3632H35.6738C36.5054 24.3632 37.1823 23.6768 37.1823 22.8337C37.1823 21.9905 36.5054 21.3041 35.6738 21.3041Z" fill="#2E388E"/>
<path d="M34.5329 30.6533H23.2488C22.4172 30.6533 21.7402 31.3397 21.7402 32.1828C21.7402 33.026 22.4172 33.7124 23.2488 33.7124H34.5329C35.3645 33.7124 36.0414 33.026 36.0414 32.1828C36.0414 31.3397 35.3645 30.6533 34.5329 30.6533Z" fill="#2E388E"/>
<path d="M28.6046 40.001H23.2488C22.4172 40.001 21.7402 40.6874 21.7402 41.5306C21.7402 42.3737 22.4172 43.0601 23.2488 43.0601H28.6046C29.4362 43.0601 30.1131 42.3737 30.1131 41.5306C30.1131 40.6874 29.4362 40.001 28.6046 40.001Z" fill="#2E388E"/>
<path d="M45.8698 42.9803L62.7932 23.3123C63.2965 22.7264 63.5461 21.9768 63.4932 21.2024C63.4403 20.4266 63.0944 19.7182 62.5178 19.2093L59.2457 16.3139C58.6665 15.8036 57.9271 15.5505 57.1647 15.6055C56.401 15.6578 55.7023 16.0099 55.1977 16.5945L45.8698 27.436V2.02953C45.8698 1.18636 45.1928 0.5 44.3612 0.5H2.00853C1.17694 0.5 0.5 1.18636 0.5 2.02953V52.9705C0.5 53.8136 1.17694 54.5 2.00853 54.5H44.3612C45.1928 54.5 45.8698 53.8136 45.8698 52.9705V42.9803ZM57.3736 18.7169L60.4205 21.4128L58.0587 24.1583L55.0105 21.4623L57.3736 18.7155V18.7169ZM42.8527 51.4409H3.51705V3.55907H42.8527V30.9408L35.4281 39.5705C35.0984 39.9515 34.8733 40.4165 34.7742 40.9144L33.8653 45.5305C33.6767 46.4947 34.0118 47.4933 34.7417 48.1384C35.4607 48.7766 36.5161 48.9802 37.4101 48.6666L41.7973 47.1274C42.0428 47.0408 42.2816 46.9101 42.5312 46.7272L42.8527 46.4919V51.4396V51.4409ZM38.4953 40.6585L41.5436 43.3545L40.7731 44.2499L36.9298 45.5979L37.7262 41.5526L38.4953 40.6585ZM43.5269 41.0492L40.4787 38.3532L53.0285 23.7663L56.0767 26.4622L43.5269 41.0478V41.0492Z" fill="#2E388E"/>
</g>
<defs>
<clipPath id="clip0_129_336">
<rect width="63" height="54" fill="white" transform="translate(0.5 0.5)"/>
</clipPath>
</defs>
</svg>
