<svg width="62" height="67" viewBox="0 0 62 67" fill="none" xmlns="http://www.w3.org/2000/svg">
<g clip-path="url(#clip0_129_346)">
<path d="M38.3438 28.8281H30.4648C29.6667 28.8281 29.0005 28.167 29.0005 27.3494C29.0005 26.5318 29.6644 25.8614 30.4648 25.8614H36.6504C37.4092 26.8775 37.9574 27.8516 38.3414 28.8281H38.3438Z" fill="#2E388E"/>
<path d="M54.8695 57.495H47.5411V41.6688C47.1247 41.7623 46.7107 41.8043 46.2758 41.8043C45.7044 41.8043 45.1446 41.7202 44.6148 41.5731V57.495H18.6254C17.8157 57.495 17.1611 58.156 17.1611 58.9736V61.1017C17.1611 62.7252 15.8425 64.0473 14.214 64.0473C12.5854 64.0473 11.297 62.7275 11.297 61.1017V22.8433C11.297 21.9744 11.0888 21.082 10.6955 20.2761L10.5197 19.9H33.8952C33.7194 18.9353 33.6569 17.9401 33.7194 16.9333H5.43052C2.19196 16.9333 -0.433594 19.5847 -0.433594 22.8457V25.5297C-0.433594 26.3473 0.230312 27.0083 1.0307 27.0083H8.36836V61.104C8.36836 64.3627 10.9939 67.0046 14.2117 67.0046H50.4882C53.706 67.0046 56.3315 64.3627 56.3315 61.104V58.976C56.3315 58.1584 55.6769 57.4973 54.8672 57.4973L54.8695 57.495Z" fill="#2E388E"/>
<path d="M38.7694 36.5531H30.4648C29.6667 36.5531 29.0005 35.8826 29.0005 35.0744C29.0005 34.2662 29.6644 33.5747 30.4648 33.5747H38.6537V35.7331C38.6537 36.0158 38.6954 36.2891 38.7671 36.5507L38.7694 36.5531Z" fill="#2E388E"/>
<path d="M39.0884 41.2951H30.4692C29.6618 41.2951 29.0049 41.9655 29.0049 42.7878C29.0049 43.61 29.6618 44.2641 30.4692 44.2641H39.0884C39.8957 44.2641 40.5504 43.6007 40.5504 42.7878C40.5504 41.9749 39.8934 41.2951 39.0884 41.2951Z" fill="#2E388E"/>
<path d="M39.0884 49.0131H30.4692C29.6618 49.0131 29.0049 49.6835 29.0049 50.5058C29.0049 51.3281 29.6618 51.9845 30.4692 51.9845H39.0884C39.8957 51.9845 40.5504 51.3211 40.5504 50.5058C40.5504 49.6906 39.8934 49.0131 39.0884 49.0131Z" fill="#2E388E"/>
<path d="M24.589 25.5997H16.7239C15.831 25.5997 15.1069 26.3309 15.1069 27.2349V35.1772C15.1069 36.0788 15.831 36.81 16.7239 36.81H24.589C25.4819 36.81 26.2083 36.0788 26.2083 35.1772V27.2349C26.2083 26.3332 25.4842 25.5997 24.589 25.5997ZM23.7562 30.3884L20.6264 33.5513C20.4228 33.7546 20.1545 33.8667 19.8699 33.8667C19.5854 33.8667 19.3171 33.7546 19.1135 33.5513L17.5567 31.9792C17.1403 31.5588 17.1403 30.8743 17.5567 30.4515C17.9754 30.0334 18.6508 30.031 19.0672 30.4515L19.8676 31.2598L22.2433 28.8607C22.662 28.4403 23.3375 28.4403 23.7562 28.8607C23.9575 29.064 24.0685 29.3349 24.0685 29.6246C24.0685 29.9142 23.9575 30.1852 23.7562 30.3884Z" fill="#2E388E"/>
<path d="M24.589 41.0334H16.7239C15.831 41.0334 15.1069 41.7646 15.1069 42.6686V50.6109C15.1069 51.5126 15.831 52.2437 16.7239 52.2437H24.589C25.4819 52.2437 26.2083 51.5126 26.2083 50.6109V42.6686C26.2083 41.7669 25.4842 41.0334 24.589 41.0334ZM23.7562 45.8222L20.6264 48.9851C20.4228 49.1883 20.1545 49.3004 19.8699 49.3004C19.5854 49.3004 19.3171 49.1883 19.1135 48.9851L17.5567 47.413C17.1403 46.9925 17.1403 46.308 17.5567 45.8852C17.9754 45.4671 18.6508 45.4648 19.0672 45.8852L19.8676 46.6935L22.2433 44.2944C22.662 43.874 23.3375 43.874 23.7562 44.2944C23.9575 44.4977 24.0685 44.7686 24.0685 45.0583C24.0685 45.348 23.9575 45.6189 23.7562 45.8222Z" fill="#2E388E"/>
<path d="M51.2575 32.0587H42.1571C41.9003 32.0587 41.6875 32.2713 41.6875 32.5329V35.7402C41.6875 35.9995 41.898 36.2144 42.1571 36.2144H43.2351C43.515 37.8963 44.9608 39.1811 46.7073 39.1811C48.4538 39.1811 49.8973 37.8963 50.1795 36.2144H51.2575C51.5142 36.2144 51.727 36.0018 51.727 35.7402V32.5329C51.7247 32.269 51.5142 32.0587 51.2551 32.0587H51.2575Z" fill="#14A0DE"/>
<path d="M46.7098 5.30263C47.3598 5.30263 47.8849 4.77237 47.8849 4.11596V1.18667C47.8849 0.530263 47.3598 0 46.7098 0C46.0598 0 45.5347 0.530263 45.5347 1.18667V4.11596C45.5347 4.77237 46.0598 5.30263 46.7098 5.30263Z" fill="#14A0DE"/>
<path d="M38.9903 6.52199C39.2078 6.90275 39.6034 7.11532 40.0082 7.11532C40.2071 7.11532 40.4107 7.06626 40.5957 6.95414C41.1579 6.6271 41.3499 5.90062 41.0237 5.33532L39.5733 2.79847C39.2494 2.23083 38.53 2.03461 37.9702 2.36631C37.4081 2.69335 37.2161 3.41983 37.5422 3.98513L38.9903 6.52199Z" fill="#14A0DE"/>
<path d="M35.6892 9.85309L33.177 8.38845C32.6149 8.06141 31.8955 8.25529 31.5739 8.8206C31.2501 9.38824 31.4421 10.1147 32.0019 10.4394L34.5141 11.9041C34.6991 12.0115 34.9004 12.0652 35.1016 12.0652C35.5088 12.0652 35.902 11.8527 36.1195 11.4719C36.441 10.9066 36.2513 10.1801 35.6892 9.85309Z" fill="#14A0DE"/>
<path d="M58.3151 12.0676C58.514 12.0676 58.7176 12.0185 58.9027 11.9064L61.4149 10.4418C61.977 10.1147 62.169 9.38824 61.8428 8.82294C61.519 8.2553 60.7995 8.06142 60.2397 8.39079L57.7275 9.85544C57.1654 10.1825 56.9734 10.909 57.2996 11.4743C57.5147 11.855 57.9103 12.0676 58.3151 12.0676Z" fill="#14A0DE"/>
<path d="M52.821 6.95649C53.0061 7.06395 53.2073 7.11768 53.4086 7.11768C53.8157 7.11768 54.209 6.9051 54.4264 6.52434L55.8768 3.98749C56.2007 3.41985 56.0087 2.69337 55.4489 2.36867C54.8868 2.04164 54.1673 2.23552 53.8458 2.80082L52.3954 5.33767C52.0692 5.90298 52.2589 6.62946 52.821 6.95649Z" fill="#14A0DE"/>
<path d="M47.1745 7.5755C43.9058 7.42367 40.8362 8.84159 38.7658 11.5256C37.6716 12.9459 36.9869 14.6628 36.7879 16.4475C36.4826 19.1759 37.2159 21.7828 38.8629 23.8898C40.0635 25.4246 40.8894 26.9079 41.389 28.4286L41.5903 29.0313C41.6874 29.3186 41.9511 29.5148 42.2542 29.5148H51.1625C51.4633 29.5148 51.7293 29.3186 51.8264 29.0313L52.0277 28.4286C52.5181 26.9453 53.3116 25.5017 54.4497 24.023C55.3472 22.8597 56.0435 21.5352 56.3928 20.1056C57.9543 13.7167 53.2167 7.85348 47.1745 7.5755ZM53.0108 19.2553C52.8767 19.8043 52.3909 20.1687 51.8565 20.1687C51.7617 20.1687 51.6645 20.157 51.5697 20.1336C50.9335 19.9724 50.5403 19.323 50.6999 18.6783C51.1093 17.0058 50.4454 15.7771 50.0129 15.1907C49.2541 14.1652 48.1206 13.5439 46.9061 13.4878C46.2492 13.4575 45.7403 12.8945 45.7726 12.2311C45.8027 11.5677 46.3348 11.0561 47.0172 11.0865C48.9488 11.1776 50.7346 12.147 51.9213 13.7518C52.606 14.6745 53.6562 16.6203 53.0132 19.2506L53.0108 19.2553Z" fill="#14A0DE"/>
</g>
<defs>
<clipPath id="clip0_129_346">
<rect width="62" height="67" fill="white"/>
</clipPath>
</defs>
</svg>
