<svg width="70" height="49" viewBox="0 0 70 49" fill="none" xmlns="http://www.w3.org/2000/svg">
<g clip-path="url(#clip0_129_373)">
<path d="M20.0543 37.8439C19.9261 37.7607 19.7603 37.7739 19.6377 37.8647C18.4937 38.7047 17.0819 39.2042 15.5571 39.2042C14.0323 39.2042 12.6205 38.7066 11.4746 37.8647C11.3521 37.7739 11.1862 37.7626 11.058 37.8439C8.34765 39.5939 7 43.02 7 46.9587C7 49.6792 24.1123 49.6792 24.1123 46.9587C24.1123 43.02 22.7647 39.5939 20.0562 37.8439H20.0543Z" fill="#203A72"/>
<path d="M15.5551 37.388C18.3767 37.388 20.6648 35.0913 20.6648 32.2593C20.6648 29.4272 18.3767 27.1306 15.5551 27.1306C12.7335 27.1306 10.4453 29.4272 10.4453 32.2593C10.4453 35.0913 12.7335 37.388 15.5551 37.388Z" fill="#203A72"/>
<path d="M39.5002 37.8439C39.372 37.7607 39.2061 37.7739 39.0836 37.8647C37.9395 38.7047 36.5278 39.2042 35.003 39.2042C33.4781 39.2042 32.0664 38.7066 30.9204 37.8647C30.7979 37.7739 30.6321 37.7626 30.5039 37.8439C27.7935 39.5939 26.4478 43.02 26.4478 46.9587C26.4478 49.6792 43.5601 49.6792 43.5601 46.9587C43.5601 43.02 42.2124 39.5939 39.5039 37.8439H39.5002Z" fill="#203A72"/>
<path d="M29.8892 32.2593C29.8892 35.0913 32.1773 37.388 34.9989 37.388C37.8205 37.388 40.1087 35.0913 40.1087 32.2593C40.1087 29.4272 37.8205 27.1306 34.9989 27.1306C32.1773 27.1306 29.8892 29.4272 29.8892 32.2593Z" fill="#203A72"/>
<path d="M58.944 37.8439C58.8158 37.7607 58.65 37.7739 58.5275 37.8647C57.3834 38.7047 55.9716 39.2042 54.4468 39.2042C52.922 39.2042 51.5103 38.7066 50.3643 37.8647C50.2418 37.7739 50.0759 37.7626 49.9477 37.8439C47.2374 39.5939 45.8916 43.02 45.8916 46.9587C45.8916 49.6792 63.0039 49.6792 63.0039 46.9587C63.0039 43.02 61.6563 39.5939 58.9478 37.8439H58.944Z" fill="#203A72"/>
<path d="M49.335 32.2593C49.335 35.0913 51.6231 37.388 54.4447 37.388C57.2663 37.388 59.5545 35.0913 59.5545 32.2593C59.5545 29.4272 57.2663 27.1306 54.4447 27.1306C51.6231 27.1306 49.335 29.4272 49.335 32.2593Z" fill="#203A72"/>
<path d="M52.0869 0H17.9151C15.7796 0 14.0493 1.73669 14.0493 3.88012V15.4316C14.0493 17.575 15.7796 19.3117 17.9151 19.3117H20.0958V23.8804C20.0958 24.6674 21.042 25.0609 21.5962 24.5047L26.77 19.3117H31.7987L34.0285 24.4215C34.3998 25.2728 35.6023 25.2728 35.9736 24.4215L38.2033 19.3117H43.232L48.4059 24.5047C48.96 25.0609 49.9062 24.6674 49.9062 23.8804V19.3117H52.0869C54.2225 19.3117 55.9527 17.575 55.9527 15.4316V3.88012C55.9527 1.73669 54.2225 0 52.0869 0ZM25.6693 12.4425C24.135 12.4425 22.8929 11.1958 22.8929 9.65584C22.8929 8.1159 24.135 6.86919 25.6693 6.86919C27.2035 6.86919 28.4456 8.11779 28.4456 9.65584C28.4456 11.1939 27.2035 12.4425 25.6693 12.4425ZM35.001 12.4425C33.4668 12.4425 32.2247 11.1958 32.2247 9.65584C32.2247 8.1159 33.4668 6.86919 35.001 6.86919C36.5353 6.86919 37.7774 8.11779 37.7774 9.65584C37.7774 11.1939 36.5353 12.4425 35.001 12.4425ZM44.3309 12.4425C42.7967 12.4425 41.5546 11.1958 41.5546 9.65584C41.5546 8.1159 42.7967 6.86919 44.3309 6.86919C45.8651 6.86919 47.1072 8.11779 47.1072 9.65584C47.1072 11.1939 45.8651 12.4425 44.3309 12.4425Z" fill="#14A0DE"/>
</g>
<defs>
<clipPath id="clip0_129_373">
<rect width="56" height="49" fill="white" transform="translate(7)"/>
</clipPath>
</defs>
</svg>
