<svg width="82" height="61" viewBox="0 0 82 61" fill="none" xmlns="http://www.w3.org/2000/svg">
<g clip-path="url(#clip0_129_375)">
<path d="M16.84 28.8102C19.5885 29.1107 22.061 27.1161 22.3594 24.3554C22.6592 21.5947 20.6718 19.1129 17.9233 18.8124C15.1734 18.5118 12.7018 20.5064 12.4035 23.2667C12.1037 26.0279 14.0901 28.5092 16.84 28.8102Z" fill="#2E388E"/>
<path d="M17.0726 48.9188H9.85723C8.16077 48.9188 6.71368 47.7011 6.41763 46.0226L3.9493 32.0126C3.78213 31.0631 2.87951 30.4259 1.93626 30.5999C0.990203 30.7668 0.359346 31.6722 0.526983 32.6212L2.99718 46.6312C3.58788 49.9785 6.47226 52.4077 9.85769 52.4077H15.8478V58.7553C15.8478 59.7184 16.6248 60.5 17.5853 60.5C18.5459 60.5 19.3229 59.7184 19.3229 58.7553V51.1774C19.3229 49.9316 18.3129 48.9183 17.0731 48.9183L17.0726 48.9188Z" fill="#2E388E"/>
<path d="M22.7589 41.5851H18.2028L19.3884 36.1439L22.602 37.7001C22.9153 37.852 23.2599 37.9303 23.6074 37.9303C23.6424 37.9303 23.676 37.9293 23.7101 37.9284L28.5599 37.7104C29.8384 37.6522 30.8293 36.5654 30.7714 35.2821C30.7135 33.9997 29.619 33.0071 28.354 33.0629L24.0874 33.2551C24.0874 33.2551 19.2329 30.7115 18.6334 30.5703C17.9595 30.4114 15.204 29.8084 15.204 29.8084C14.2337 29.597 13.2381 29.7789 12.4046 30.3218C11.5711 30.8657 11.001 31.7022 10.7969 32.6793L8.77452 42.4366C8.55271 43.5094 8.81981 44.6127 9.50857 45.4627C10.1973 46.3133 11.2176 46.8004 12.3103 46.8004H20.3513C20.8691 46.8004 21.2903 47.2224 21.2903 47.7429V57.7984C21.2903 59.2383 22.4521 60.4058 23.8875 60.4058C25.323 60.4058 26.4833 59.2383 26.4833 57.7984V45.3272C26.4833 43.2609 24.8158 41.5861 22.7584 41.5861L22.7589 41.5851Z" fill="#2E388E"/>
<path d="M65.1611 28.8102C67.9106 28.5096 69.897 26.0279 69.5972 23.2667C69.2984 20.506 66.8272 18.5118 64.0773 18.8124C61.3279 19.1129 59.3415 21.5947 59.6413 24.3554C59.9401 27.1161 62.4112 29.1103 65.1611 28.8102Z" fill="#2E388E"/>
<path d="M80.0649 30.5999C79.1211 30.4259 78.219 31.0631 78.0513 32.0126L75.5821 46.0226C75.287 47.7011 73.8403 48.9188 72.1434 48.9188H64.9285C63.6878 48.9188 62.6782 49.9321 62.6782 51.1778V58.7558C62.6782 59.7189 63.4552 60.5005 64.4158 60.5005C65.3763 60.5005 66.1533 59.7189 66.1533 58.7558V52.4082H72.1434C75.5279 52.4082 78.4132 49.9789 79.0039 46.6316L81.4732 32.6217C81.6408 31.6722 81.0104 30.7673 80.0649 30.6004V30.5999Z" fill="#2E388E"/>
<path d="M72.4918 45.4623C73.1806 44.6122 73.4477 43.5089 73.2259 42.4361L71.2026 32.6789C70.9999 31.7017 70.4297 30.8653 69.5962 30.3214C68.7627 29.7784 67.7672 29.597 66.7964 29.8079C66.7964 29.8079 64.0413 30.4105 63.367 30.5699C62.7675 30.711 57.913 33.2546 57.913 33.2546L53.6464 33.0624C52.3805 33.0071 51.286 33.9992 51.2295 35.2816C51.1716 36.5649 52.1615 37.6522 53.4396 37.7099L58.2898 37.9279C58.3249 37.9289 58.3589 37.9298 58.394 37.9298C58.7409 37.9298 59.0865 37.8515 59.3993 37.6996L62.6129 36.1434L63.7985 41.5847H59.2424C57.185 41.5847 55.5166 43.2595 55.5166 45.3258V57.7969C55.5166 59.2369 56.6793 60.4044 58.1133 60.4044C59.5474 60.4044 60.7105 59.2369 60.7105 57.7969V47.7415C60.7105 47.221 61.1313 46.799 61.6496 46.799H69.6906C70.7823 46.799 71.8031 46.3119 72.4923 45.4613L72.4918 45.4623Z" fill="#2E388E"/>
<path d="M52.2666 39.6745H29.7346C28.7746 39.6745 27.9971 40.4556 27.9971 41.4192C27.9971 42.3827 28.7741 43.1634 29.7346 43.1634H33.5366V59.2636C33.5366 59.8938 34.0455 60.4049 34.6731 60.4049H47.3272C47.9552 60.4049 48.4637 59.8938 48.4637 59.2636V43.1634H52.2666C53.2258 43.1634 54.0042 42.3818 54.0042 41.4192C54.0042 40.4566 53.2258 39.6745 52.2666 39.6745Z" fill="#2E388E"/>
<path d="M47.8412 23.8111C49.4849 23.8111 51.0189 23.3553 52.3399 22.5751L55.907 24.2176C56.6938 24.58 57.5049 23.7646 57.1444 22.976L55.5091 19.3933C56.2857 18.0669 56.7391 16.5276 56.7391 14.8771C56.7391 9.94174 52.755 5.94177 47.8412 5.94177C42.9274 5.94177 38.9438 9.94127 38.9438 14.8771C38.9438 19.813 42.9274 23.8111 47.8412 23.8111ZM52.7924 13.3392C53.6375 13.3392 54.3226 14.027 54.3226 14.8757C54.3226 15.7244 53.6375 16.4122 52.7924 16.4122C51.9472 16.4122 51.2617 15.7244 51.2617 14.8757C51.2617 14.027 51.9472 13.3392 52.7924 13.3392ZM47.8412 13.3392C48.6869 13.3392 49.3719 14.027 49.3719 14.8757C49.3719 15.7244 48.6869 16.4122 47.8412 16.4122C46.9956 16.4122 46.311 15.7244 46.311 14.8757C46.311 14.027 46.9965 13.3392 47.8412 13.3392ZM42.8906 13.3392C43.7357 13.3392 44.4208 14.027 44.4208 14.8757C44.4208 15.7244 43.7357 16.4122 42.8906 16.4122C42.0454 16.4122 41.3603 15.7244 41.3603 14.8757C41.3603 14.027 42.0454 13.3392 42.8906 13.3392Z" fill="#2E388E"/>
<path d="M40.0487 7.25226C39.0835 3.37654 35.5916 0.5 31.424 0.5C26.5103 0.5 22.5211 4.50559 22.5211 9.43956C22.5211 11.0877 22.9787 12.626 23.7548 13.9544L22.1232 17.5403C21.7553 18.329 22.571 19.1382 23.3569 18.7786L26.9277 17.1408C28.2408 17.9201 29.7832 18.3693 31.424 18.3693C33.5627 18.3693 35.5225 17.6102 37.0541 16.3419C36.9845 15.8627 36.9547 15.3732 36.9547 14.8733C36.9547 11.9068 38.1384 9.22013 40.0482 7.25226H40.0487ZM32.138 14.374C32.0414 14.5339 31.9143 14.6614 31.7565 14.7566C31.5987 14.8522 31.4236 14.8991 31.2303 14.8991C30.9431 14.8991 30.6951 14.7965 30.4883 14.5901C30.2809 14.3843 30.1777 14.1349 30.1777 13.8428C30.1777 13.5507 30.2809 13.3064 30.4883 13.1001C30.6951 12.8938 30.9431 12.7911 31.2303 12.7911C31.5174 12.7911 31.7612 12.8938 31.9699 13.1001C32.1782 13.3064 32.2832 13.5535 32.2832 13.8428C32.2832 14.0364 32.2347 14.2132 32.1385 14.374H32.138ZM34.5405 7.77318C34.4177 8.08873 34.2435 8.37006 34.017 8.61622C33.791 8.86285 33.5197 9.08134 33.2036 9.2717C32.9052 9.45832 32.6643 9.65196 32.4798 9.85264C32.2954 10.0538 32.1614 10.2915 32.0773 10.5663C31.9928 10.841 31.9475 11.1814 31.9405 11.5865V11.6869H30.435V11.5865C30.4425 10.9311 30.5079 10.4097 30.6326 10.0219C30.7568 9.63461 30.9351 9.32141 31.1667 9.08134C31.3984 8.84222 31.6771 8.62372 32.0035 8.42632C32.2141 8.29269 32.4037 8.14312 32.5718 7.97714C32.7399 7.8121 32.8739 7.62127 32.972 7.40652C33.0696 7.19131 33.1191 6.95359 33.1191 6.69336C33.1191 6.37922 33.0458 6.10821 32.8987 5.8794C32.7511 5.65059 32.555 5.47382 32.3113 5.34816C32.0675 5.22344 31.7967 5.16108 31.4983 5.16108C31.2284 5.16108 30.9702 5.21735 30.7245 5.33035C30.4794 5.44334 30.2753 5.61823 30.1142 5.85642C29.9527 6.09414 29.8597 6.39985 29.835 6.77354H28.2352C28.2595 6.13915 28.4197 5.60276 28.7138 5.16436C29.0085 4.7255 29.3984 4.394 29.885 4.16801C30.3706 3.94295 30.9085 3.82995 31.4978 3.82995C32.1432 3.82995 32.7082 3.95092 33.1924 4.19145C33.6771 4.43292 34.053 4.76957 34.3215 5.20094C34.5895 5.63277 34.724 6.13587 34.724 6.70977C34.724 7.10457 34.6624 7.4595 34.5396 7.77412L34.5405 7.77318Z" fill="#1DA7ED"/>
</g>
<defs>
<clipPath id="clip0_129_375">
<rect width="81" height="60" fill="white" transform="translate(0.5 0.5)"/>
</clipPath>
</defs>
</svg>
