<svg width="13" height="12" viewBox="0 0 13 12" fill="none" xmlns="http://www.w3.org/2000/svg">
<path d="M7.66016 5.75L12.0195 10.1094C12.125 10.2148 12.125 10.3906 12.0195 10.5312L11.2461 11.3047C11.1055 11.4102 10.9297 11.4102 10.8242 11.3047L10.0859 10.5664L6.5 6.94531L2.14062 11.3047C2.03516 11.4102 1.85938 11.4102 1.71875 11.3047L0.945312 10.5312C0.839844 10.3906 0.839844 10.2148 0.945312 10.1094L5.30469 5.75L0.945312 1.42578C0.839844 1.32031 0.839844 1.14453 0.945312 1.00391L1.71875 0.230469C1.85938 0.125 2.03516 0.125 2.14062 0.230469L6.5 4.58984L10.8242 0.230469C10.9297 0.125 11.1055 0.125 11.2461 0.230469L12.0195 1.00391C12.125 1.14453 12.125 1.32031 12.0195 1.42578L11.2812 2.16406L7.66016 5.75Z" fill="#2E388E"/>
</svg>
