<svg width="17" height="13" viewBox="0 0 17 13" fill="none" xmlns="http://www.w3.org/2000/svg">
<path d="M16.1641 1.75781H0.835938C0.695312 1.75781 0.625 1.6875 0.625 1.54688V0.703125C0.625 0.597656 0.695312 0.492188 0.835938 0.492188H16.1641C16.2695 0.492188 16.375 0.597656 16.375 0.703125V1.54688C16.375 1.6875 16.2695 1.75781 16.1641 1.75781ZM16.1641 7.38281H0.835938C0.695312 7.38281 0.625 7.3125 0.625 7.17188V6.32812C0.625 6.22266 0.695312 6.11719 0.835938 6.11719H16.1641C16.2695 6.11719 16.375 6.22266 16.375 6.32812V7.17188C16.375 7.3125 16.2695 7.38281 16.1641 7.38281ZM16.1641 13.0078H0.835938C0.695312 13.0078 0.625 12.9375 0.625 12.7969V11.9531C0.625 11.8477 0.695312 11.7422 0.835938 11.7422H16.1641C16.2695 11.7422 16.375 11.8477 16.375 11.9531V12.7969C16.375 12.9375 16.2695 13.0078 16.1641 13.0078Z" fill="#2E388E"/>
</svg>
